<svg width="24" height="24" viewBox="-2.4 -2.4 28.80 28.80" fill="none" xmlns="http://www.w3.org/2000/svg">
    <g id="SVGRepo_bgCarrier" stroke-width="0"></g>
    <g id="SVGRepo_tracerCarrier" stroke-linecap="round" stroke-linejoin="round" stroke="#CCCCCC" stroke-width="0.048">
    </g>
    <g id="SVGRepo_iconCarrier">
        <path
            d="M15 8.37003V7.41003C15 4.43003 12.93 3.29003 10.41 4.87003L7.49 6.70003C7.17 6.89003 6.8 7.00003 6.43 7.00003H5C3 7.00003 2 8.00003 2 10V14C2 16 3 17 5 17H7"
            stroke="#292D32" stroke-width="0.72" stroke-linecap="round" stroke-linejoin="round"></path>
        <path d="M10.41 19.13C12.93 20.71 15 19.56 15 16.59V12.95" stroke="#292D32" stroke-width="0.72"
            stroke-linecap="round" stroke-linejoin="round"></path>
        <path d="M18.81 9.41992C19.71 11.5699 19.44 14.0799 18 15.9999" stroke="#292D32" stroke-width="0.72"
            stroke-linecap="round" stroke-linejoin="round"></path>
        <path d="M21.15 7.80005C22.62 11.29 22.18 15.37 19.83 18.5" stroke="#292D32" stroke-width="0.72"
            stroke-linecap="round" stroke-linejoin="round"></path>
        <path d="M22 2L2 22" stroke="#292D32" stroke-width="0.72" stroke-linecap="round" stroke-linejoin="round"></path>
    </g>
</svg>